<svg width="24" height="24" viewBox="0 0 24 24" fill="none" xmlns="http://www.w3.org/2000/svg">
<path d="M11.8484 2.69467C9.05309 2.65363 5.17013 2.71363 4.37069 4.86115L2.40653 9.47011C2.31941 9.37046 2.20516 9.29832 2.07773 9.26251L1.28693 9.04003C1.19997 9.01538 1.10901 9.00814 1.01924 9.01873C0.929483 9.02932 0.842697 9.05754 0.763869 9.10176C0.685041 9.14598 0.615722 9.20533 0.559891 9.27641C0.504061 9.34749 0.462818 9.4289 0.438531 9.51595L0.0259706 10.9809C0.00135038 11.0679 -0.00586164 11.1588 0.00474824 11.2485C0.0153581 11.3383 0.0435811 11.425 0.0877981 11.5038C0.132015 11.5826 0.191356 11.6519 0.262416 11.7077C0.333476 11.7636 0.414857 11.8048 0.501891 11.8291L1.29293 12.0518C1.31933 12.059 1.34573 12.0614 1.37213 12.0657C1.22093 12.4425 1.12685 12.8568 1.12685 13.1032V18.46C1.12685 18.7346 1.24205 18.8618 1.42493 18.9213V20.3484C1.42465 20.475 1.44939 20.6005 1.49774 20.7176C1.54609 20.8347 1.61709 20.9411 1.70667 21.0307C1.79625 21.1203 1.90264 21.1913 2.01974 21.2396C2.13683 21.288 2.26233 21.3127 2.38901 21.3124H4.97549C5.10218 21.3127 5.22767 21.288 5.34476 21.2396C5.46186 21.1913 5.56825 21.1203 5.65783 21.0307C5.74741 20.9411 5.81842 20.8347 5.86676 20.7176C5.91511 20.6005 5.93986 20.475 5.93957 20.3484V18.9736H18.0603V20.3484C18.0601 20.475 18.0849 20.6005 18.1333 20.7176C18.1816 20.8347 18.2527 20.9411 18.3423 21.0306C18.4318 21.1202 18.5382 21.1912 18.6553 21.2396C18.7724 21.2879 18.8979 21.3127 19.0246 21.3124H21.6106C21.7373 21.3127 21.8628 21.288 21.98 21.2396C22.0971 21.1913 22.2035 21.1203 22.2931 21.0307C22.3827 20.9412 22.4538 20.8348 22.5022 20.7177C22.5506 20.6006 22.5754 20.4751 22.5752 20.3484V18.9216C22.7583 18.862 22.8728 18.7348 22.8728 18.4603V13.1035C22.8728 12.857 22.7785 12.4428 22.6275 12.066C22.6539 12.0619 22.6803 12.0595 22.7067 12.052L23.498 11.8293C23.585 11.805 23.6663 11.7637 23.7374 11.7079C23.8084 11.6521 23.8677 11.5828 23.9119 11.504C23.9561 11.4252 23.9843 11.3385 23.9949 11.2487C24.0055 11.159 23.9983 11.0681 23.9737 10.9812L23.5616 9.51619C23.5373 9.42913 23.496 9.34771 23.4401 9.27663C23.3843 9.20555 23.3149 9.1462 23.2361 9.10198C23.1572 9.05776 23.0704 9.02955 22.9807 9.01896C22.8909 9.00837 22.7999 9.01561 22.7129 9.04027L21.9221 9.26275C21.7947 9.29871 21.6804 9.37082 21.5931 9.47035L19.6289 4.86139C18.7721 2.68123 14.6434 2.73595 11.8481 2.69491L11.8484 2.69467ZM19.8541 9.76123C19.9006 9.89947 19.7614 9.99163 19.6157 10C19.6157 10 19.1396 10.0404 18.4829 10.0934C17.9833 8.92603 16.8221 8.10331 15.4769 8.10331C14.0007 8.10331 12.7474 9.09451 12.3454 10.4443C12.2341 10.4457 12.1047 10.4505 12.0013 10.4505C9.45797 10.4505 4.38389 10 4.38389 10C4.23845 9.99139 4.09901 9.89923 4.14557 9.76123C6.09965 3.80419 6.15797 4.25203 11.8918 4.31467C17.6254 4.37707 17.6588 3.95155 19.8541 9.76123ZM15.4769 9.22915C15.8309 9.22793 16.1797 9.31485 16.4917 9.48206C16.8037 9.64928 17.0692 9.89154 17.2642 10.187C16.1158 10.2722 14.7941 10.3593 13.5625 10.41C13.7397 10.0542 14.0129 9.75504 14.3512 9.54638C14.6895 9.33772 15.0794 9.22784 15.4769 9.22915ZM2.25749 11.1624C2.27477 11.188 2.29157 11.2137 2.31077 11.2384H2.23637L2.25749 11.1624ZM3.52805 12.6585C4.03109 12.6504 6.73157 13.5592 6.73157 13.5592C7.06877 13.6543 7.36565 14.2917 7.36397 14.6421C7.35893 15.8222 4.31381 15.4125 3.07757 15.4173C2.9945 15.4175 2.91221 15.4012 2.83543 15.3695C2.75865 15.3378 2.68888 15.2913 2.63013 15.2325C2.57138 15.1738 2.5248 15.104 2.49306 15.0273C2.46132 14.9505 2.44504 14.8682 2.44517 14.7852V13.2912C2.44517 12.9408 3.02501 12.6672 3.52805 12.6585ZM20.4716 12.6585C20.9746 12.6669 21.5545 12.9408 21.5545 13.2912V14.7852C21.5546 14.8682 21.5384 14.9506 21.5066 15.0274C21.4749 15.1041 21.4283 15.1739 21.3696 15.2327C21.3108 15.2914 21.241 15.338 21.1642 15.3697C21.0875 15.4015 21.0051 15.4177 20.9221 15.4176C19.6861 15.4128 16.6407 15.8222 16.6357 14.6421C16.634 14.2917 16.9309 13.6543 17.2681 13.5592C17.2681 13.5592 19.9685 12.6504 20.4716 12.6585Z" fill="#B388FF"/>
</svg>
