<svg width="42" height="42" viewBox="0 0 42 42" fill="none" xmlns="http://www.w3.org/2000/svg">
<rect x="0.5" y="0.5" width="41" height="41" rx="11.5" fill="#333333"/>
<rect x="0.5" y="0.5" width="41" height="41" rx="11.5" stroke="#444444"/>
<path d="M27.65 28.875L22.1375 23.3625C21.7 23.7125 21.1969 23.9896 20.6281 24.1937C20.0594 24.3979 19.4542 24.5 18.8125 24.5C17.2229 24.5 15.8777 23.9493 14.777 22.848C13.6762 21.7467 13.1256 20.4015 13.125 18.8125C13.125 17.2229 13.6757 15.8777 14.777 14.777C15.8783 13.6762 17.2235 13.1256 18.8125 13.125C20.4021 13.125 21.7473 13.6757 22.848 14.777C23.9488 15.8783 24.4994 17.2235 24.5 18.8125C24.5 19.4542 24.3979 20.0594 24.1937 20.6281C23.9896 21.1969 23.7125 21.7 23.3625 22.1375L28.875 27.65L27.65 28.875ZM18.8125 22.75C19.9062 22.75 20.8361 22.367 21.602 21.6011C22.3679 20.8352 22.7506 19.9057 22.75 18.8125C22.75 17.7188 22.367 16.7889 21.6011 16.023C20.8352 15.2571 19.9057 14.8744 18.8125 14.875C17.7188 14.875 16.7889 15.258 16.023 16.0239C15.2571 16.7898 14.8744 17.7193 14.875 18.8125C14.875 19.9062 15.258 20.8361 16.0239 21.602C16.7898 22.3679 17.7193 22.7506 18.8125 22.75Z" fill="#808080"/>
</svg>
