<svg width="24" height="24" viewBox="0 0 24 24" fill="none" xmlns="http://www.w3.org/2000/svg">
<g clip-path="url(#clip0_2936_1574)">
<path d="M16.6667 2.66406H7.33333C6.97971 2.66406 6.64057 2.80454 6.39052 3.05459C6.14048 3.30464 6 3.64377 6 3.9974V19.9974C6 20.351 6.14048 20.6902 6.39052 20.9402C6.64057 21.1903 6.97971 21.3307 7.33333 21.3307H16.6667C17.0203 21.3307 17.3594 21.1903 17.6095 20.9402C17.8595 20.6902 18 20.351 18 19.9974V3.9974C18 3.64377 17.8595 3.30464 17.6095 3.05459C17.3594 2.80454 17.0203 2.66406 16.6667 2.66406ZM12.6667 19.9974H11.3333V18.6641H12.6667V19.9974ZM7.33333 17.3307V3.9974H16.6667V17.3307H7.33333Z" fill="#808080"/>
</g>
<defs>
<clipPath id="clip0_2936_1574">
<rect width="24" height="24" fill="white"/>
</clipPath>
</defs>
</svg>
