<svg width="24" height="25" viewBox="0 0 24 25" fill="none" xmlns="http://www.w3.org/2000/svg">
<path fill-rule="evenodd" clip-rule="evenodd" d="M15.3763 11.3643C15.5638 11.5519 15.6691 11.8062 15.6691 12.0713C15.6691 12.3365 15.5638 12.5908 15.3763 12.7783L9.71929 18.4353C9.62704 18.5309 9.5167 18.607 9.39469 18.6594C9.27269 18.7119 9.14147 18.7394 9.00869 18.7406C8.87591 18.7418 8.74423 18.7165 8.62133 18.6662C8.49844 18.6159 8.38679 18.5416 8.29289 18.4477C8.199 18.3538 8.12475 18.2422 8.07447 18.1193C8.02419 17.9964 7.99888 17.8647 8.00004 17.7319C8.00119 17.5992 8.02878 17.4679 8.08119 17.3459C8.1336 17.2239 8.20978 17.1136 8.30529 17.0213L13.2553 12.0713L8.30529 7.12135C8.12313 6.93275 8.02234 6.68014 8.02461 6.41795C8.02689 6.15575 8.13206 5.90494 8.31747 5.71953C8.50288 5.53412 8.75369 5.42895 9.01589 5.42667C9.27808 5.4244 9.53069 5.52519 9.71929 5.70735L15.3763 11.3643Z" fill="#E3E3E3"/>
</svg>
