<svg width="24" height="24" viewBox="0 0 24 24" fill="none" xmlns="http://www.w3.org/2000/svg">
<g clip-path="url(#clip0_2897_1842)">
<path fill-rule="evenodd" clip-rule="evenodd" d="M15.3763 10.9377C15.5638 11.1252 15.6691 11.3795 15.6691 11.6447C15.6691 11.9099 15.5638 12.1642 15.3763 12.3517L9.71929 18.0087C9.62704 18.1042 9.5167 18.1804 9.39469 18.2328C9.27269 18.2852 9.14147 18.3128 9.00869 18.314C8.87591 18.3151 8.74423 18.2898 8.62133 18.2395C8.49844 18.1893 8.38679 18.115 8.29289 18.0211C8.199 17.9272 8.12475 17.8156 8.07447 17.6927C8.02419 17.5698 7.99888 17.4381 8.00004 17.3053C8.00119 17.1725 8.02878 17.0413 8.08119 16.9193C8.1336 16.7973 8.20978 16.687 8.30529 16.5947L13.2553 11.6447L8.30529 6.69471C8.12313 6.50611 8.02234 6.25351 8.02461 5.99131C8.02689 5.72911 8.13206 5.4783 8.31747 5.29289C8.50288 5.10748 8.75369 5.00232 9.01589 5.00004C9.27808 4.99776 9.53069 5.09855 9.71929 5.28071L15.3763 10.9377Z" fill="#B388FF"/>
</g>
<defs>
<clipPath id="clip0_2897_1842">
<rect width="24" height="24" fill="white"/>
</clipPath>
</defs>
</svg>
