<svg width="186" height="116" viewBox="0 0 186 116" fill="none" xmlns="http://www.w3.org/2000/svg">
<path d="M140.1 89.3938C130.865 87.7175 120.501 86.2284 109.599 85.0117C98.6972 83.7949 87.4714 82.8743 76.5626 82.3024C65.6538 81.7305 55.2757 81.5185 46.0206 81.6785C36.7656 81.8385 28.815 82.3674 22.6228 83.2349L27.7251 84.1611C33.4681 83.3565 40.8418 82.866 49.4253 82.7176C58.0089 82.5692 67.6341 82.7658 77.7514 83.2962C87.8687 83.8267 98.28 84.6805 108.391 85.8089C118.502 86.9374 128.114 88.3184 136.679 89.8731L140.1 89.3938Z" fill="#B388FF"/>
<path d="M15.0639 84.6906C10.7022 85.8555 8.39776 87.3015 8.28206 88.946C8.16636 90.5906 10.2417 92.4015 14.3896 94.2754C18.5375 96.1493 24.6768 98.0494 32.4568 99.8673C40.2369 101.685 49.5054 103.385 59.7331 104.871L62.1429 104.227C52.6573 102.849 44.0612 101.273 36.8457 99.5868C29.6301 97.9007 23.9363 96.1385 20.0893 94.4005C16.2423 92.6626 14.3175 90.9831 14.4248 89.4578C14.5321 87.9326 16.6694 86.5915 20.7147 85.5111L15.0639 84.6906Z" fill="#B388FF"/>
<path d="M71.3945 106.419C89.5965 108.62 108.876 109.986 126.187 110.303C143.498 110.619 157.853 109.867 166.985 108.165C176.116 106.463 179.503 103.909 176.611 100.905C173.718 97.902 164.711 94.621 151.013 91.5806L146.8 91.9013C159.504 94.7211 167.858 97.764 170.541 100.549C173.223 103.335 170.082 105.704 161.613 107.282C153.144 108.861 139.83 109.558 123.775 109.265C107.72 108.972 89.8396 107.704 72.9583 105.663L71.3945 106.419Z" fill="#B388FF"/>
<path fill-rule="evenodd" clip-rule="evenodd" d="M98.8416 0C100.93 0.634465 102.068 1.1631 103.3 2.22452L78.1589 34.9315C84.9896 39.9054 92.2017 52.3988 88.3123 62.5583C90.2064 48.7958 77.4953 38.5266 69.9714 37.156L98.8416 0ZM78.7274 75.6825C83.4731 75.8978 88.1213 76 92.9583 76C103.493 76 113.641 75.471 123.13 74.4134C126.542 74.0961 129.392 71.0258 129.863 67.1092C130.624 60.0203 131 52.6101 131 44.9886C131 37.367 130.624 29.9533 129.863 22.8643C129.392 18.8423 126.542 15.8774 123.13 15.4542C118.953 15.0316 114.684 14.7106 110.324 14.3935C110.324 14.3935 92.2951 58.1131 90.3974 62.5583C87.7403 69.2281 84.0418 74.0961 78.7274 75.6825ZM86.5082 60.1221C86.5082 46.6805 66.1196 40.8572 59.1641 44.5623L91.3485 2.85882C89.3535 2.33002 87.0769 2.75316 87.1715 2.75316L77.9709 14.2911C72.7788 14.5028 67.7423 14.9256 62.8659 15.4542C59.3948 15.8774 56.5675 18.8423 56.1293 22.8644C55.3631 29.9533 55 37.3672 55 44.9887C55 52.6103 55.3631 60.0203 56.1293 67.1092C56.6245 71.5582 59.3653 73.7791 62.8657 74.4136C72.4751 76.215 86.5082 74.6251 86.5082 60.1221Z" fill="#B388FF"/>
</svg>
