<svg width="22" height="22" viewBox="0 0 22 22" fill="none" xmlns="http://www.w3.org/2000/svg">
<path d="M17.65 18.875L12.1375 13.3625C11.7 13.7125 11.1969 13.9896 10.6281 14.1937C10.0594 14.3979 9.45417 14.5 8.8125 14.5C7.22292 14.5 5.87775 13.9493 4.777 12.848C3.67625 11.7467 3.12558 10.4015 3.125 8.8125C3.125 7.22292 3.67567 5.87775 4.777 4.777C5.87833 3.67625 7.2235 3.12558 8.8125 3.125C10.4021 3.125 11.7473 3.67567 12.848 4.777C13.9488 5.87833 14.4994 7.2235 14.5 8.8125C14.5 9.45417 14.3979 10.0594 14.1937 10.6281C13.9896 11.1969 13.7125 11.7 13.3625 12.1375L18.875 17.65L17.65 18.875ZM8.8125 12.75C9.90625 12.75 10.8361 12.367 11.602 11.6011C12.3679 10.8352 12.7506 9.90567 12.75 8.8125C12.75 7.71875 12.367 6.78892 11.6011 6.023C10.8352 5.25708 9.90567 4.87442 8.8125 4.875C7.71875 4.875 6.78892 5.25796 6.023 6.02388C5.25708 6.78979 4.87442 7.71933 4.875 8.8125C4.875 9.90625 5.25796 10.8361 6.02388 11.602C6.78979 12.3679 7.71933 12.7506 8.8125 12.75Z" fill="#B388FF"/>
</svg>
